{"glyphs":{":":{"x_min":0,"x_max":219,"ha":219,"o":"m 57 338 q 57 356 73 372 q 88 388 108 388 q 129 388 146 372 q 162 355 162 334 q 162 311 143 291 q 131 277 107 277 q 85 277 71 293 q 57 309 57 338 z m 60 41 q 60 62 75 78 q 91 94 112 94 q 132 94 147 79 q 161 64 161 41 q 161 18 146 2 q 131 -13 110 -13 q 86 -13 73 5 q 60 23 60 41 z"},"$":{"x_min":0,"x_max":448,"ha":448,"o":"m 164 29 q 169 62 169 187 l 170 212 l 167 306 q 138 318 103 344 q 69 369 55 397 q 42 425 42 461 q 42 511 71 549 q 101 588 154 604 l 163 607 l 163 614 q 163 618 166 655 l 184 655 q 186 624 186 608 q 205 610 217 610 q 229 610 245 608 q 255 607 261 607 l 261 614 q 261 624 263 654 l 284 654 q 285 645 285 630 q 285 614 286 604 q 324 594 343 585 q 362 575 380 560 q 385 556 398 538 q 403 530 403 517 q 403 505 394 497 q 385 488 373 488 q 363 488 348 500 q 343 506 333 517 q 309 553 302 558 q 295 564 282 567 q 279 514 279 500 q 279 495 280 482 q 282 464 282 419 l 281 322 q 284 319 289 317 l 334 287 q 354 273 367 256 q 390 223 399 197 q 405 178 405 150 q 405 98 374 59 q 344 19 297 4 q 287 1 278 -3 q 273 -26 273 -31 l 274 -99 q 274 -104 271 -133 l 252 -133 q 251 -115 251 -106 q 251 -99 253 -64 q 253 -54 253 -47 q 253 -39 252 -28 q 251 -16 251 -8 q 238 -10 188 -11 q 184 -36 182 -75 q 181 -114 180 -133 l 162 -133 q 164 -94 164 -11 q 157 -10 146 -7 q 92 5 67 30 q 42 55 42 79 q 42 90 50 98 q 59 106 70 106 q 92 106 124 65 q 146 35 164 29 z m 185 371 q 200 362 248 339 q 253 335 258 333 q 259 351 259 354 l 262 497 l 261 525 l 262 539 q 262 560 258 582 q 234 586 213 586 q 197 586 183 581 l 184 511 l 183 446 q 185 418 185 404 l 184 381 q 184 379 185 371 z m 162 381 q 164 402 164 408 l 164 438 q 165 482 165 499 q 165 557 162 577 q 125 567 107 544 q 83 513 83 480 q 83 457 105 427 q 126 397 162 381 z m 184 22 q 206 14 233 14 q 245 14 256 17 l 257 25 l 257 58 l 259 137 l 258 200 l 258 235 q 258 242 257 259 q 222 281 191 292 q 189 285 189 282 l 183 80 l 184 71 l 184 47 q 184 29 184 22 z m 278 25 q 314 41 332 67 q 350 93 350 131 q 350 152 343 167 q 329 199 317 211 q 300 229 282 239 q 281 230 280 224 l 279 124 l 276 41 l 276 37 z"},"?":{"x_min":0,"x_max":365,"ha":365,"o":"m 121 153 l 100 153 q 99 159 98 168 q 98 173 96 183 q 94 195 87 266 l 84 296 l 83 303 q 83 306 85 312 q 99 321 126 323 q 200 327 225 335 q 261 348 278 373 q 294 397 294 432 q 294 490 253 535 q 211 580 169 580 q 155 580 117 571 q 90 565 82 565 q 64 565 54 575 q 43 584 43 599 q 43 617 55 626 q 73 640 106 640 q 138 640 177 625 q 216 610 261 563 q 294 531 312 485 q 331 439 331 398 q 331 364 316 334 q 301 303 284 288 q 267 272 241 263 q 229 259 176 252 q 151 249 141 242 q 131 235 126 223 q 125 219 123 190 q 121 161 121 153 z m 64 34 q 64 57 77 70 q 95 87 115 87 q 133 87 148 72 q 163 56 163 34 q 163 12 149 -1 q 135 -15 111 -15 q 94 -15 79 0 q 64 15 64 34 z"},"<":{"x_min":0,"x_max":667,"ha":667,"o":"m 595 70 l 72 292 l 72 331 l 595 552 l 595 505 l 128 312 l 595 117 z"},"'":{"x_min":0,"x_max":177,"ha":177,"o":"m 77 392 l 51 537 q 40 597 40 618 q 40 649 52 663 q 65 677 87 677 q 109 677 123 663 q 138 648 138 626 q 138 606 125 536 l 99 392 z"},"=":{"x_min":0,"x_max":667,"ha":667,"o":"m 72 446 l 595 446 l 595 403 l 72 403 z m 72 220 l 595 220 l 595 176 l 72 176 z"},"a":{"x_min":0,"x_max":406,"ha":406,"o":"m 397 66 q 400 60 400 57 q 400 50 388 31 q 373 7 354 -4 q 343 -12 322 -12 q 287 -12 270 10 q 259 22 254 55 l 200 17 q 171 0 156 -4 q 131 -10 97 -10 q 72 -10 58 5 q 43 20 43 43 q 43 77 85 124 q 126 170 197 200 q 247 221 258 227 q 259 243 259 262 q 259 324 241 346 q 224 368 192 368 q 158 368 129 342 q 111 325 102 279 q 99 267 90 252 q 69 238 57 238 q 46 238 37 245 q 32 248 32 252 q 32 265 59 310 q 86 354 128 377 q 169 399 200 399 q 242 399 262 391 q 283 384 298 365 q 314 346 317 323 q 319 312 319 247 l 318 169 l 318 112 q 318 101 318 93 q 317 79 317 72 q 317 56 327 46 q 336 37 349 37 q 367 37 380 55 l 386 63 q 389 64 397 66 z m 253 81 q 257 143 257 168 q 257 181 255 204 q 223 192 186 168 q 149 144 128 113 q 112 90 112 70 q 112 51 125 39 q 138 26 158 26 q 173 26 194 37 q 223 51 253 81 z"},"L":{"x_min":0,"x_max":573,"ha":573,"o":"m 5 -3 q 6 4 9 10 q 47 21 83 24 q 107 26 114 35 q 119 41 120 82 l 124 210 l 123 298 l 124 412 l 124 442 q 124 545 123 571 q 122 576 119 584 q 106 590 97 592 q 89 594 21 606 q 21 612 21 614 q 21 617 21 622 q 30 622 51 621 l 125 619 l 168 618 l 181 618 q 184 618 195 617 q 224 617 229 618 l 268 621 q 307 621 323 619 q 323 610 320 600 q 314 599 269 597 q 224 596 217 592 q 206 585 206 553 q 206 545 205 521 l 205 492 l 205 401 l 205 371 l 206 209 l 205 71 l 205 41 q 205 26 210 23 q 222 22 282 22 l 315 22 l 399 25 q 433 26 447 31 q 461 37 494 64 q 514 82 525 101 q 528 104 534 112 q 543 125 559 163 l 575 163 q 572 146 568 130 q 554 61 549 15 q 548 5 547 -3 l 364 2 q 129 2 85 -2 q 71 -3 56 -3 z"},"3":{"x_min":0,"x_max":469,"ha":469,"o":"m 83 492 l 67 501 q 98 576 141 606 q 183 637 240 637 q 292 637 324 613 q 372 578 372 534 q 372 499 347 462 q 323 426 263 381 l 274 382 q 312 382 348 363 q 383 343 404 302 q 424 262 424 215 q 424 121 355 53 q 286 -14 179 -14 q 98 -14 60 10 q 39 22 39 41 q 39 51 47 59 q 56 67 68 67 q 84 67 107 50 q 162 8 202 8 q 262 8 309 59 q 356 110 356 188 q 356 252 324 294 q 293 335 245 335 q 208 335 169 301 l 158 320 q 182 341 202 356 q 261 399 291 441 q 312 472 312 495 q 312 533 284 560 q 257 586 212 586 q 139 586 83 492 z"},";":{"x_min":0,"x_max":219,"ha":219,"o":"m 115 392 q 137 392 152 377 q 167 362 167 341 q 167 321 152 306 q 137 292 116 292 q 95 292 80 306 q 65 321 65 342 q 65 362 80 377 q 94 392 115 392 z m 42 -138 q 99 -104 120 -79 q 140 -54 140 -26 q 140 -15 133 -7 q 126 0 118 0 l 88 0 q 76 0 66 10 q 56 21 56 39 q 56 58 71 71 q 91 89 115 89 q 148 89 168 67 q 189 45 189 1 q 189 -39 173 -67 q 156 -96 123 -121 q 103 -136 56 -157 z"},"J":{"x_min":0,"x_max":333,"ha":333,"o":"m -67 -178 q -58 -171 -50 -171 q -28 -171 1 -197 q 6 -202 8 -204 l 11 -206 q 22 -216 35 -216 q 54 -216 72 -203 q 91 -190 102 -168 q 117 -137 124 -98 q 131 -59 131 -3 l 131 73 l 132 125 q 132 179 128 290 l 125 472 l 125 566 q 126 579 121 588 q 118 593 111 597 q 103 601 89 602 l 53 604 q 36 604 29 607 q 27 615 27 619 l 28 625 q 39 625 54 624 q 84 622 113 622 q 127 622 149 623 q 167 624 173 624 l 245 624 q 260 624 278 622 q 278 611 277 604 q 235 603 224 599 q 212 595 207 588 q 204 583 204 571 l 202 520 l 202 508 q 203 499 203 474 l 203 455 q 203 438 204 424 q 205 405 205 401 q 205 396 204 378 q 203 373 203 369 l 209 233 l 208 146 l 208 89 q 208 40 189 -47 q 176 -111 140 -163 q 104 -215 70 -234 q 35 -253 -22 -253 q -53 -253 -72 -238 q -84 -228 -84 -211 q -84 -190 -67 -178 z"},"V":{"x_min":0,"x_max":677,"ha":677,"o":"m -8 619 l -5 627 q 35 627 74 626 l 90 626 q 98 626 106 627 q 138 628 221 628 q 238 628 253 628 q 269 628 284 627 q 287 626 288 623 l 287 615 q 284 610 272 610 l 269 610 q 255 611 224 608 q 192 605 183 598 q 176 593 176 584 q 176 565 192 527 l 267 354 l 292 297 q 330 207 367 112 q 371 102 374 93 l 407 173 q 432 234 458 302 l 492 394 q 493 397 497 414 q 544 543 544 577 q 544 584 538 592 q 531 600 517 604 q 511 606 479 610 l 442 615 q 438 620 438 623 l 439 627 l 598 628 l 650 628 q 676 628 686 625 l 687 621 q 687 617 684 611 q 672 607 662 606 q 621 601 611 594 q 602 588 591 566 l 462 249 q 402 106 377 27 l 363 -15 q 356 -19 352 -19 q 347 -19 340 -18 q 282 132 246 214 l 96 553 q 80 583 72 590 q 64 596 16 607 q -1 611 -3 612 q -7 614 -8 619 z"},"\"":{"x_min":0,"x_max":406,"ha":406,"o":"m 103 392 l 76 537 q 65 596 65 618 q 65 649 78 663 q 91 677 113 677 q 134 677 148 663 q 163 648 163 625 q 163 605 150 536 l 124 392 z m 281 392 l 255 535 l 244 594 q 243 606 243 618 q 243 649 257 663 q 271 677 293 677 q 314 677 328 663 q 342 649 342 626 q 342 583 333 535 l 305 392 z"},"7":{"x_min":0,"x_max":469,"ha":469,"o":"m 53 617 q 113 620 215 620 q 262 620 321 618 q 357 617 369 617 l 416 617 l 427 617 q 431 613 431 610 q 431 604 420 582 q 415 572 373 475 q 352 427 322 349 l 261 176 q 239 116 232 93 l 221 47 q 214 27 214 18 q 214 11 223 -5 q 217 -13 196 -13 q 187 -13 179 -5 q 182 24 197 71 q 203 88 217 139 q 231 189 245 228 l 301 379 q 325 443 347 498 q 355 516 359 523 q 369 541 369 553 l 363 552 l 357 552 l 293 554 q 290 554 272 553 q 255 552 246 552 l 170 553 l 147 553 l 115 554 q 87 554 80 547 q 73 540 72 511 q 71 503 68 497 q 62 495 60 495 q 55 495 46 499 q 46 511 46 517 l 47 532 l 46 559 q 46 594 48 606 q 49 611 53 617 z"},"S":{"x_min":0,"x_max":479,"ha":479,"o":"m 388 603 q 392 570 392 565 l 390 522 q 389 494 388 486 q 383 484 380 484 l 376 485 q 360 554 323 585 q 286 616 232 616 q 176 616 141 585 q 105 554 105 512 q 105 480 130 454 q 155 428 257 375 q 335 334 369 309 q 403 283 420 250 q 437 216 437 174 q 437 122 410 76 q 383 30 337 7 q 291 -16 215 -16 q 149 -16 89 5 q 53 18 45 25 q 38 33 38 42 q 38 47 39 56 q 45 113 46 150 q 47 173 49 177 q 51 181 57 181 q 61 181 64 177 q 66 174 67 166 q 73 105 123 58 q 173 11 236 11 q 274 11 307 27 q 339 43 358 73 q 376 104 376 133 q 376 172 348 205 q 320 238 236 281 q 152 325 127 345 q 86 378 65 415 q 50 443 50 480 q 50 548 104 595 q 158 643 248 643 q 298 643 334 631 q 360 623 388 603 z"},"}":{"x_min":0,"x_max":479,"ha":479,"o":"m 86 677 l 86 694 q 167 684 219 629 q 270 574 270 507 q 270 471 259 425 q 248 379 248 351 q 248 317 277 287 q 307 256 359 250 l 359 229 q 307 223 277 192 q 248 162 248 127 q 248 100 259 54 q 270 8 270 -28 q 270 -94 219 -149 q 168 -205 86 -216 l 86 -199 q 144 -185 170 -154 q 197 -123 197 -87 q 197 -57 186 -10 q 174 38 174 70 q 174 120 211 167 q 247 213 319 238 q 249 264 211 312 q 174 359 174 408 q 174 441 186 489 q 197 536 197 566 q 197 602 170 633 q 144 664 86 677 z"},"Z":{"x_min":0,"x_max":656,"ha":656,"o":"m 36 -6 l 35 6 q 68 42 78 56 q 81 61 96 79 l 124 117 l 311 367 l 473 582 q 476 587 480 594 q 462 595 450 595 q 438 595 418 594 q 399 593 313 592 q 310 592 282 589 q 254 586 207 584 q 159 582 137 572 q 125 566 110 550 q 90 529 78 509 q 62 481 52 475 l 43 474 q 45 484 54 506 q 62 528 78 586 q 89 617 94 632 q 99 646 103 656 q 108 657 112 657 l 119 657 q 115 644 115 639 q 115 624 127 615 q 139 607 191 607 q 213 607 236 610 q 245 611 278 612 l 305 612 l 419 615 l 521 618 l 569 621 q 579 621 589 617 l 589 614 q 589 606 552 561 q 533 537 528 531 l 437 409 q 417 381 405 367 q 399 359 367 317 l 296 224 l 197 93 q 163 49 151 32 q 149 29 146 23 l 335 22 q 378 21 403 21 q 498 21 536 51 q 574 80 588 147 q 592 163 594 170 q 599 175 606 175 l 608 174 q 609 163 609 154 q 609 130 607 87 l 606 54 l 607 24 q 607 11 604 -1 q 587 -2 583 -2 q 563 -1 549 -1 l 423 -3 l 269 0 l 188 -1 q 185 -1 159 0 q 145 1 137 1 q 111 1 65 -5 q 50 -7 47 -7 q 43 -7 36 -6 z"},"x":{"x_min":0,"x_max":458,"ha":458,"o":"m 15 366 q 14 372 14 376 l 14 383 q 21 385 31 385 l 49 385 q 91 383 102 383 q 135 383 170 384 q 191 385 196 385 l 208 385 q 211 378 211 375 q 211 372 209 368 l 202 367 q 167 363 157 358 q 153 355 153 352 q 153 344 165 329 q 222 254 243 233 q 289 294 298 312 q 307 329 307 339 q 307 350 298 358 q 289 365 255 370 q 251 376 251 380 l 252 385 l 265 385 q 270 385 282 385 q 303 383 324 383 q 335 383 361 384 q 388 385 401 385 l 424 385 q 430 382 430 377 q 430 375 429 371 q 421 369 410 367 q 384 363 359 348 q 340 336 322 312 l 253 218 l 324 129 q 373 63 384 52 q 395 40 407 33 q 420 25 444 19 q 445 13 445 9 q 445 5 443 0 q 434 0 354 2 q 349 2 307 1 q 294 0 282 0 q 271 0 254 1 l 255 16 q 263 18 271 20 q 296 24 307 33 q 313 38 313 44 q 313 55 247 134 l 218 169 q 198 148 173 111 q 159 89 150 78 q 133 59 133 45 q 133 41 139 36 q 145 32 173 25 q 192 21 200 19 q 202 13 202 9 q 202 6 201 0 q 163 2 127 2 q 83 2 62 1 q 42 0 37 0 q 31 0 19 0 q 17 7 17 11 l 18 17 q 24 21 35 21 q 67 25 93 46 q 118 67 206 186 l 141 264 l 71 347 q 68 350 64 353 q 56 357 43 360 q 23 364 15 366 z"},")":{"x_min":0,"x_max":292,"ha":292,"o":"m -21 -219 q -6 -204 4 -195 q 37 -166 59 -133 q 105 -66 122 -30 q 145 19 156 77 q 168 135 168 200 q 168 275 155 331 q 142 387 112 448 q 82 508 50 551 q 44 559 -13 616 l -3 640 q 36 617 70 578 q 121 519 154 453 q 188 386 198 327 q 214 235 214 190 q 214 133 198 62 q 182 -9 140 -84 q 108 -142 51 -200 q 26 -226 -9 -244 q -14 -232 -21 -219 z"},"&":{"x_min":0,"x_max":729,"ha":729,"o":"m 218 348 q 172 406 159 434 q 146 462 146 487 q 146 530 182 562 q 217 594 283 594 q 344 594 378 563 q 411 532 411 485 q 411 441 389 412 q 366 383 314 360 q 332 336 369 293 q 382 279 388 271 l 472 167 q 513 214 533 252 q 553 291 553 311 q 553 325 544 335 q 535 346 513 352 q 511 356 511 359 l 512 363 l 568 369 q 585 371 616 372 q 647 373 703 377 l 704 372 q 704 369 702 363 q 668 349 644 330 q 620 311 571 254 q 521 196 486 148 q 548 74 573 57 q 599 40 627 40 q 659 40 683 59 q 698 71 705 71 q 708 71 713 69 q 703 23 693 16 q 656 -15 612 -15 q 584 -15 561 -6 q 537 2 512 21 q 497 31 462 65 q 440 86 434 92 q 395 53 375 39 q 342 14 302 0 q 262 -14 211 -14 q 148 -14 106 12 q 64 39 46 81 q 27 123 27 161 q 27 190 38 217 q 48 244 66 263 q 83 283 113 303 q 124 310 164 330 q 188 342 218 348 z m 296 378 q 324 390 339 418 q 355 446 355 477 q 355 523 333 548 q 312 573 279 573 q 249 573 230 555 q 212 537 212 512 q 212 486 231 456 q 259 413 296 378 z m 420 110 l 417 116 l 415 118 l 306 248 q 286 272 232 332 q 171 309 139 267 q 108 224 108 177 q 108 164 116 140 q 124 116 145 93 q 166 70 198 58 q 230 45 272 45 q 320 45 359 64 q 397 83 420 110 z"},"_":{"x_min":0,"x_max":500,"ha":500,"o":"m -6 -75 l 506 -75 l 506 -125 l -6 -125 z"},"v":{"x_min":0,"x_max":469,"ha":469,"o":"m -5 388 q 49 387 89 384 q 118 384 131 385 q 141 386 143 386 l 198 385 q 209 383 216 383 q 219 382 221 377 q 221 373 218 367 q 210 365 201 364 q 165 360 140 353 q 136 351 136 348 q 136 343 141 333 q 142 331 146 321 l 194 204 q 227 124 255 68 q 274 104 290 143 q 306 182 337 265 q 346 288 354 323 q 355 330 355 334 q 355 340 349 347 q 342 354 327 359 q 323 359 282 366 q 279 368 276 372 l 276 375 q 276 378 276 382 q 288 383 293 383 l 351 383 q 357 383 379 384 q 457 384 472 383 q 475 382 478 377 q 478 373 475 367 l 459 363 q 454 363 450 362 q 408 358 398 351 q 391 345 375 300 q 368 278 354 245 l 329 183 q 323 170 317 154 l 241 -21 l 227 -21 q 222 -9 216 4 l 179 83 l 91 287 q 65 347 60 352 q 54 356 -3 372 q -6 380 -6 383 z"},"O":{"x_min":0,"x_max":781,"ha":781,"o":"m 46 312 q 46 362 58 401 q 70 439 98 485 q 126 530 167 561 q 207 591 277 615 q 327 631 403 631 q 455 631 504 617 q 553 604 593 579 q 633 555 673 504 q 701 469 715 428 q 733 375 733 318 q 733 254 721 211 q 708 169 679 127 q 656 95 601 53 q 563 25 508 8 q 453 -10 389 -10 q 324 -10 273 5 q 223 21 189 42 q 155 64 119 106 q 83 149 64 200 q 46 251 46 312 z m 385 8 q 426 8 470 20 q 514 31 548 58 q 583 84 602 118 q 621 152 633 206 q 645 259 645 312 q 645 378 625 443 q 610 493 576 531 q 542 570 493 592 q 445 613 390 613 q 346 613 303 598 q 261 583 233 561 q 206 538 183 496 q 159 455 147 404 q 135 354 135 315 q 135 275 147 224 q 159 172 180 135 q 202 97 233 68 q 264 39 302 24 q 341 8 385 8 z"},"(":{"x_min":0,"x_max":292,"ha":292,"o":"m 297 639 q 302 626 310 613 q 304 608 283 588 q 250 558 233 533 q 189 469 168 425 q 147 380 135 322 q 123 263 123 184 q 123 130 133 79 q 143 28 168 -29 q 194 -86 236 -146 q 255 -174 283 -198 q 288 -203 300 -215 l 307 -222 l 296 -245 q 254 -220 222 -182 q 166 -116 135 -53 q 104 9 93 69 q 77 160 77 200 q 77 267 94 338 q 111 409 151 481 q 178 529 229 585 q 261 621 297 639 z"},"C":{"x_min":0,"x_max":635,"ha":635,"o":"m 579 598 q 584 560 584 521 q 584 513 584 500 q 577 498 574 498 q 571 498 565 499 q 545 556 499 587 q 452 618 384 618 q 348 618 323 609 q 279 594 246 568 q 212 541 189 504 q 167 467 153 415 q 140 362 140 308 q 140 203 171 135 q 203 67 258 38 q 313 9 370 9 l 393 9 q 432 14 446 19 q 481 29 505 43 q 528 57 550 82 q 572 107 588 141 l 594 143 q 596 143 601 140 q 601 128 600 125 q 580 42 570 12 q 562 10 551 6 q 494 -13 398 -13 q 321 -13 282 -3 q 244 8 199 30 q 154 52 120 89 q 85 125 64 181 q 43 237 43 303 q 43 366 60 412 q 77 459 111 507 q 146 555 193 586 q 240 618 298 631 q 338 640 413 640 q 467 640 515 626 q 562 611 579 598 z"},"W":{"x_min":0,"x_max":885,"ha":885,"o":"m -9 605 l -10 613 q -3 622 29 622 l 74 622 l 101 621 l 112 622 q 176 622 189 620 q 190 614 190 611 q 190 606 189 598 l 142 596 q 138 596 132 594 q 130 589 130 586 q 130 583 133 577 q 137 569 141 560 l 171 474 l 245 290 q 257 256 262 247 q 275 216 296 161 q 304 142 332 78 q 333 74 337 65 q 359 101 402 190 q 435 258 443 284 l 439 294 l 355 484 q 339 520 330 541 q 311 585 302 591 q 293 598 250 600 l 240 603 q 236 607 236 613 q 237 617 240 620 q 256 620 262 620 l 293 619 l 309 620 l 335 620 l 359 620 l 385 620 l 431 623 q 435 623 444 622 l 452 623 q 458 623 462 619 q 465 616 465 612 q 465 609 463 604 q 456 602 436 600 q 407 596 402 593 q 397 590 397 585 q 397 576 435 487 l 485 375 q 508 419 547 516 q 564 556 564 575 q 564 585 556 594 q 549 600 527 602 l 517 603 l 508 607 l 508 611 q 508 614 510 619 q 515 623 519 624 q 526 625 587 621 l 620 621 l 641 621 l 675 621 q 679 621 687 619 q 690 615 690 611 q 690 606 686 603 q 682 599 667 597 q 630 590 612 577 q 600 568 590 551 l 554 472 q 542 436 533 417 q 530 406 521 388 l 500 341 q 506 329 519 300 l 569 184 q 572 176 589 140 q 606 104 617 74 l 625 98 l 625 100 l 655 178 q 671 213 687 253 l 724 348 l 781 509 q 790 537 795 562 l 796 570 q 798 576 798 578 q 798 585 791 591 q 784 596 743 606 q 739 607 735 610 q 733 616 733 620 l 734 623 q 754 624 760 624 l 797 623 l 840 624 l 876 624 l 891 623 l 892 618 q 892 614 891 607 q 855 594 847 588 q 838 582 834 575 q 829 568 816 538 q 815 535 786 450 q 779 438 772 417 q 771 411 764 396 l 756 376 l 751 362 q 719 273 680 176 l 627 29 l 606 -26 q 599 -27 595 -27 q 591 -27 585 -27 q 579 -9 557 42 q 501 169 457 254 l 451 244 q 426 197 391 119 l 353 42 q 330 -8 315 -27 l 294 -27 l 215 166 l 149 319 l 92 465 q 86 479 82 492 q 78 501 75 511 q 70 526 48 580 q 39 594 20 598 q 0 602 -9 605 z"},"A":{"x_min":0,"x_max":677,"ha":677,"o":"m -5 16 q 1 20 7 20 l 18 20 q 21 20 30 20 q 67 23 74 27 q 91 36 104 59 q 129 109 161 200 q 176 244 180 253 q 192 282 203 314 l 249 443 q 260 473 301 582 q 311 609 326 655 l 340 656 l 357 655 q 378 614 394 566 q 403 541 423 490 l 497 290 l 537 181 q 568 88 578 67 q 587 45 596 39 q 598 37 614 33 q 630 29 636 27 q 659 21 667 16 q 669 11 669 8 q 669 5 668 0 q 652 0 646 0 q 621 0 558 1 l 509 3 l 450 2 q 444 2 438 3 q 432 3 428 3 l 417 3 q 412 4 407 6 q 407 13 410 20 q 416 22 420 23 l 472 26 q 492 27 502 32 q 505 41 505 45 q 505 54 492 90 q 483 115 477 137 q 470 159 425 281 q 405 285 390 285 l 285 284 l 254 284 q 238 284 218 282 q 211 267 209 261 l 167 126 q 139 50 139 42 q 139 38 144 27 q 154 24 171 22 l 237 16 q 243 12 243 8 q 243 6 241 1 q 219 0 208 0 q 168 0 117 3 q 93 4 83 4 q 72 4 47 3 q 30 2 23 2 q 11 2 -7 3 l -7 6 q -7 10 -5 16 z m 228 309 q 280 306 347 306 q 385 306 414 308 q 409 327 402 344 q 371 429 367 438 l 323 550 l 318 559 q 315 553 296 509 q 265 433 251 390 q 245 371 238 352 q 231 333 230 326 q 228 318 225 311 z"},"f":{"x_min":0,"x_max":323,"ha":323,"o":"m 180 380 q 301 377 309 377 q 310 367 310 361 q 310 355 309 342 q 296 340 284 340 l 265 340 q 205 340 181 336 q 180 325 180 319 q 180 316 181 312 q 183 235 183 219 l 182 93 q 182 65 191 47 q 197 36 211 30 q 221 25 256 21 q 283 17 292 16 q 292 5 291 0 l 284 0 q 261 1 223 2 l 187 3 l 64 0 l 48 0 l 47 15 q 55 16 58 17 q 100 25 112 35 q 117 39 119 49 q 120 55 120 104 q 120 243 118 326 q 105 330 79 331 q 69 331 48 333 l 47 338 q 47 344 52 348 q 54 350 93 368 q 108 375 114 385 q 118 391 118 408 q 119 416 121 435 q 127 485 130 497 q 139 529 160 562 q 181 594 210 619 q 231 636 259 645 q 286 654 320 654 q 367 654 388 639 q 403 628 403 612 q 403 599 393 589 q 382 579 367 579 q 349 579 327 588 q 287 604 281 606 q 272 608 262 608 q 235 608 213 591 q 191 574 185 549 q 179 524 179 438 q 179 406 180 380 z"},"Q":{"x_min":0,"x_max":771,"ha":771,"o":"m 232 605 q 309 643 399 643 q 487 643 557 602 q 627 562 669 495 q 721 413 721 316 q 721 253 694 187 q 667 120 625 77 q 583 35 538 14 q 494 -7 468 -10 q 451 -13 442 -17 q 462 -41 511 -79 q 560 -117 607 -138 q 611 -140 623 -146 q 649 -158 672 -168 l 684 -172 l 688 -173 l 701 -178 q 726 -189 748 -196 q 748 -200 748 -203 l 748 -208 l 748 -217 q 732 -218 729 -218 q 684 -218 624 -201 q 565 -184 515 -156 q 466 -128 408 -82 q 369 -50 343 -20 q 257 -8 189 39 q 120 86 84 155 q 47 225 47 297 q 47 383 92 469 q 137 556 232 605 z m 328 5 q 355 0 378 0 q 432 0 475 17 q 518 33 543 60 q 576 94 600 157 q 624 220 624 315 q 624 390 602 451 q 587 494 553 537 q 519 580 482 600 q 445 620 389 620 q 323 620 266 586 q 208 552 169 467 q 145 414 145 318 q 145 240 172 165 q 199 91 249 45 q 278 18 328 5 z"},"w":{"x_min":0,"x_max":667,"ha":667,"o":"m -10 385 l 177 384 q 183 384 185 382 q 187 380 187 376 q 187 367 179 363 q 145 360 137 354 q 128 349 128 338 q 128 333 129 329 q 131 323 144 294 q 160 256 203 169 l 261 51 q 311 138 341 213 l 312 291 q 307 302 299 323 q 292 345 287 348 q 283 352 257 359 q 231 367 227 371 l 226 374 q 226 377 229 382 q 241 385 248 385 l 275 385 l 336 385 l 355 385 l 415 384 q 422 384 427 385 l 436 385 q 438 385 444 384 l 443 369 q 436 364 418 362 q 386 359 369 350 q 364 344 364 340 q 364 329 370 313 q 372 308 380 283 l 432 145 q 455 83 467 59 q 488 97 525 194 q 538 229 560 276 q 574 306 574 327 q 574 338 566 346 q 558 354 527 361 q 509 365 500 368 q 498 372 498 375 q 498 379 503 384 l 511 384 l 550 385 q 553 385 573 384 q 593 383 612 383 q 626 383 646 384 l 670 384 q 673 383 674 382 q 675 380 675 377 q 675 372 674 365 q 650 362 636 354 q 623 346 599 310 l 512 100 q 500 71 469 10 q 463 -2 460 -10 q 457 -18 454 -21 q 451 -23 446 -23 q 442 -23 437 -21 q 423 6 376 127 q 363 160 353 183 q 272 16 248 -22 q 241 -23 237 -23 q 234 -23 228 -22 l 135 171 l 51 336 q 42 351 37 354 q 29 360 8 363 q -4 365 -10 366 q -11 374 -11 377 q -11 380 -10 385 z"},"-":{"x_min":0,"x_max":312,"ha":312,"o":"m 40 216 l 47 216 l 85 215 l 150 218 l 198 216 l 223 217 q 258 217 274 213 l 275 174 q 245 172 227 172 q 209 172 192 173 q 168 175 164 175 l 143 174 q 134 174 122 174 q 61 174 38 179 l 37 193 q 37 202 40 216 z"},"E":{"x_min":0,"x_max":656,"ha":656,"o":"m 24 8 q 29 12 33 13 q 41 16 61 17 q 108 20 120 26 q 126 36 126 53 l 126 87 l 126 211 l 125 270 l 126 393 l 124 532 q 123 582 117 588 q 108 597 65 599 q 46 599 32 602 q 26 605 26 610 q 26 614 28 620 q 33 622 36 622 q 43 622 53 622 q 82 619 112 619 l 148 620 l 234 618 q 299 618 335 620 q 371 621 384 621 q 395 621 439 619 l 509 620 l 517 618 l 558 620 l 562 617 q 565 613 566 609 q 566 602 564 588 q 562 574 562 570 q 562 520 565 484 q 564 481 562 480 q 557 480 552 482 q 547 491 538 515 q 529 538 511 569 q 499 589 492 593 q 485 597 463 597 q 459 597 419 598 q 408 599 398 599 l 259 596 l 247 596 q 220 596 214 589 q 206 577 206 520 q 206 514 208 403 l 208 335 q 214 333 220 333 l 229 333 q 237 333 253 333 q 278 332 287 332 q 293 332 297 333 q 350 334 433 334 q 459 339 463 345 q 471 354 474 391 q 478 428 491 433 q 497 433 502 430 q 503 426 503 423 q 503 419 502 412 q 500 394 500 298 q 500 273 503 242 q 505 210 505 208 q 505 204 504 196 q 500 194 498 194 l 494 194 q 486 208 479 237 q 466 286 452 299 q 438 311 407 311 q 400 311 382 310 q 364 310 329 310 l 297 310 q 229 310 208 307 l 208 291 l 208 201 l 208 144 l 208 89 q 208 39 214 31 q 223 21 250 21 l 280 21 q 284 21 311 20 q 337 20 376 20 q 471 20 502 28 q 533 36 553 56 q 574 77 604 145 q 614 165 623 165 q 627 165 633 161 q 619 112 617 97 q 611 63 610 27 q 610 11 603 0 l 592 0 l 455 -1 l 393 0 l 247 -2 l 187 -2 q 176 -2 166 -3 q 78 -7 37 -7 q 29 -7 27 -4 q 24 -2 24 3 z"},"s":{"x_min":0,"x_max":365,"ha":365,"o":"m 71 124 q 89 78 98 64 q 117 36 143 21 q 168 5 199 5 q 227 5 254 29 q 273 47 273 71 q 273 103 250 130 q 228 156 163 180 q 99 205 77 232 q 55 259 55 294 q 55 328 73 353 q 91 378 123 391 q 155 404 182 404 q 216 404 244 399 q 271 394 292 382 q 295 357 298 309 l 299 293 q 292 293 288 293 l 281 293 q 267 333 237 357 q 207 381 177 381 q 148 381 130 363 q 112 345 112 316 q 112 294 126 277 q 141 260 195 238 q 249 216 274 198 q 298 179 310 152 q 322 125 322 101 q 322 67 300 38 q 277 8 244 -4 q 210 -16 184 -16 q 122 -16 70 7 q 65 11 64 22 q 64 26 63 36 q 56 102 56 114 q 56 120 58 122 q 61 124 71 124 z"},">":{"x_min":0,"x_max":667,"ha":667,"o":"m 72 552 l 595 330 l 595 291 l 72 70 l 72 117 l 538 311 l 72 505 z"},"l":{"x_min":0,"x_max":229,"ha":229,"o":"m 25 605 l 25 616 q 39 620 56 625 q 80 633 128 649 l 151 649 q 151 625 151 622 q 151 221 149 144 q 147 99 147 96 q 147 41 152 35 q 158 26 188 22 q 218 19 223 16 q 227 14 227 9 q 227 3 225 1 q 223 -1 217 -1 q 213 -1 166 0 l 102 2 l 20 -1 q 12 -1 8 2 q 5 4 5 9 q 5 14 8 16 q 11 18 43 23 q 75 29 80 32 q 84 36 86 49 q 88 66 88 148 l 87 260 l 89 376 l 88 493 l 90 550 q 90 567 84 574 q 79 582 62 589 q 35 600 25 605 z"},"8":{"x_min":0,"x_max":469,"ha":469,"o":"m 188 312 q 141 337 124 353 q 100 374 83 407 q 67 440 67 475 q 67 535 115 584 q 163 633 233 633 q 312 633 357 592 q 403 550 403 491 q 403 458 390 430 q 376 403 349 381 q 331 366 287 343 q 354 308 367 297 q 393 277 411 243 q 429 209 429 168 q 429 92 376 39 q 323 -14 241 -14 q 157 -14 107 32 q 57 79 57 146 q 57 185 70 217 q 83 248 111 271 q 132 288 188 312 z m 265 354 q 306 377 322 401 q 349 440 349 491 q 349 530 333 558 q 317 586 291 598 q 265 610 235 610 q 187 610 155 577 q 124 544 124 496 q 124 467 132 448 q 141 430 159 414 q 170 403 213 375 q 220 371 244 363 q 251 360 265 354 z m 212 301 q 177 283 163 269 q 142 248 129 220 q 117 191 117 142 q 117 89 140 60 q 178 10 240 10 q 296 10 332 46 q 368 82 368 138 q 368 199 331 234 q 295 270 212 301 z"},"\\":{"x_min":0,"x_max":500,"ha":500,"o":"m 55 696 l 98 696 l 445 -135 l 402 -135 z"},"e":{"x_min":0,"x_max":417,"ha":417,"o":"m 387 258 l 191 256 l 154 256 q 131 256 108 254 q 104 240 104 234 l 104 229 l 104 225 l 104 201 q 104 171 122 128 q 141 84 176 62 q 211 39 263 38 q 291 39 308 44 q 324 50 354 69 l 390 98 l 393 79 q 393 75 392 71 q 370 43 336 22 q 303 1 268 -8 q 251 -13 213 -13 q 179 -13 145 1 q 95 23 67 71 q 38 118 38 186 q 38 208 46 241 q 54 275 75 313 q 89 339 110 355 q 139 379 161 388 q 193 401 235 401 q 280 401 309 385 q 348 363 367 328 q 387 293 387 265 z m 114 275 l 137 275 q 162 275 286 283 q 305 284 310 287 q 318 296 318 304 q 318 319 309 338 q 299 357 279 368 q 258 378 231 378 q 175 378 141 336 q 114 304 114 275 z"},"b":{"x_min":0,"x_max":510,"ha":510,"o":"m 17 614 l 17 616 q 17 621 21 630 q 74 639 134 658 q 137 659 145 659 q 147 651 147 648 l 147 503 l 146 457 l 147 405 l 146 363 q 146 360 147 346 l 187 361 q 193 363 229 374 q 274 381 282 381 q 331 381 370 366 q 394 356 417 333 q 440 311 452 285 q 471 239 471 205 q 471 152 464 131 q 448 83 424 54 q 400 26 357 6 q 314 -14 266 -14 q 221 -14 182 2 q 142 19 137 19 q 122 19 99 -21 l 84 -21 q 83 12 83 60 l 83 133 l 83 170 l 84 276 l 83 297 l 85 347 l 85 390 l 85 408 q 85 413 85 450 l 85 479 q 86 564 78 578 q 63 599 17 614 z m 249 13 q 323 13 362 54 q 400 96 400 179 q 400 254 356 301 q 312 348 248 348 q 201 348 169 333 q 150 324 148 316 q 146 308 146 211 q 146 97 151 77 q 159 47 181 34 q 216 13 249 13 z"},"%":{"x_min":0,"x_max":823,"ha":823,"o":"m 179 -33 q 184 -23 189 -15 q 195 -6 205 10 q 208 15 241 65 q 274 114 286 134 q 504 504 602 637 l 607 637 q 630 636 633 636 l 419 301 l 322 141 l 210 -32 l 207 -32 q 204 -32 183 -33 z m 285 466 q 285 389 246 343 q 208 297 160 297 q 111 297 73 341 q 36 385 36 461 q 36 514 55 560 q 70 594 99 615 q 128 637 162 637 q 196 637 226 614 q 256 592 274 547 q 285 518 285 466 z m 230 457 q 230 529 227 551 q 220 588 203 604 q 187 619 162 619 q 129 619 111 591 q 92 563 92 455 q 92 369 111 342 q 130 314 159 314 q 192 314 209 338 q 230 369 230 457 z m 790 161 q 790 83 750 38 q 711 -7 664 -7 q 615 -7 578 36 q 540 80 540 156 q 540 209 560 255 q 574 289 603 310 q 632 332 666 332 q 700 332 730 310 q 761 287 778 242 q 790 213 790 161 z m 735 152 q 735 224 730 246 q 724 283 707 299 q 690 314 666 314 q 634 314 615 286 q 596 258 596 150 q 596 64 615 37 q 634 9 664 9 q 696 9 713 33 q 735 63 735 152 z"},"m":{"x_min":0,"x_max":771,"ha":771,"o":"m 20 17 q 27 22 41 24 q 61 27 71 32 q 80 40 83 53 q 86 71 86 177 q 86 281 80 311 q 69 318 52 322 q 47 323 30 327 l 30 343 q 59 352 76 365 q 94 378 126 417 l 129 417 q 132 417 138 418 q 142 417 145 416 l 144 360 q 144 343 145 323 q 197 371 239 390 q 267 402 303 402 q 345 402 370 386 q 395 370 417 328 q 461 371 496 388 q 532 405 568 405 q 623 405 658 370 q 692 333 693 264 l 693 223 l 694 179 l 693 64 q 693 44 702 34 q 706 33 732 25 q 748 21 751 19 q 754 16 754 12 q 754 6 751 -1 l 748 -1 l 698 2 q 689 2 670 2 q 647 2 605 0 l 580 0 q 575 0 559 0 q 559 4 559 8 q 559 12 562 18 q 575 23 598 27 q 621 31 627 40 q 632 50 632 116 q 632 260 629 283 q 623 320 598 341 q 573 361 535 361 q 505 361 478 346 q 450 331 423 300 l 422 288 l 422 213 l 420 155 q 420 66 422 54 q 424 42 430 36 q 437 31 469 26 q 483 24 491 22 q 497 18 497 10 q 497 3 492 1 l 484 1 l 459 1 l 317 1 l 278 1 q 277 8 277 12 l 278 18 q 289 23 318 29 q 333 31 349 37 q 352 40 354 43 q 356 50 357 83 l 359 139 l 358 203 l 359 239 q 359 299 334 326 q 310 354 273 354 q 238 354 203 337 q 168 320 146 291 q 145 277 145 266 l 147 102 q 147 48 153 41 q 159 33 178 30 q 209 26 219 20 q 223 17 223 11 q 223 7 223 1 q 167 5 148 5 q 128 5 113 5 l 88 3 l 73 3 l 19 1 q 18 5 18 7 q 18 10 20 17 z"},"#":{"x_min":0,"x_max":667,"ha":667,"o":"m 46 463 l 209 463 l 252 667 l 295 667 l 252 463 l 474 463 l 517 667 l 560 667 l 517 463 l 621 463 l 621 420 l 508 420 l 467 222 l 621 222 l 621 179 l 458 179 l 417 -23 l 373 -23 l 416 179 l 192 179 l 151 -23 l 107 -23 l 149 179 l 46 179 l 46 222 l 159 222 l 200 420 l 46 420 z m 243 420 l 201 223 l 424 223 l 466 420 z"},",":{"x_min":0,"x_max":219,"ha":219,"o":"m 41 -174 l 42 -159 q 47 -156 53 -153 q 104 -129 122 -103 q 139 -77 139 -56 q 139 -42 129 -32 q 120 -22 96 -17 q 72 -12 65 -9 q 60 -7 53 1 q 48 11 48 21 q 48 43 57 52 q 77 69 98 69 q 135 69 162 40 q 189 12 189 -31 q 189 -61 170 -96 q 150 -130 111 -152 q 71 -173 41 -174 z"},"n":{"x_min":0,"x_max":510,"ha":510,"o":"m 19 16 q 31 19 47 21 q 78 26 84 32 q 90 38 90 59 l 91 76 q 91 86 91 101 l 90 251 q 90 281 83 290 q 69 304 34 309 l 34 327 q 69 336 88 352 q 116 374 135 412 l 152 411 q 153 388 153 378 l 153 346 l 154 337 q 160 341 167 347 q 197 369 228 383 q 258 397 282 402 q 297 406 316 406 q 356 406 385 385 q 414 363 423 334 q 431 305 431 219 l 431 145 q 431 142 430 125 q 430 109 430 87 q 430 53 433 44 q 435 38 445 31 q 492 25 500 16 l 500 12 q 500 7 497 0 l 488 0 l 423 0 l 360 0 q 325 -1 295 0 l 292 10 q 292 13 295 18 q 309 24 333 26 q 347 27 352 29 q 357 31 365 37 q 371 48 371 56 q 371 60 370 70 q 369 92 368 182 l 368 207 l 369 246 q 369 309 344 333 q 318 357 276 357 q 243 357 212 343 q 181 328 151 299 q 150 276 150 259 l 152 151 q 152 67 154 48 q 155 40 158 37 q 162 33 173 31 q 185 28 200 24 q 216 20 221 19 q 230 16 234 9 l 233 -1 l 182 -1 l 77 0 q 40 0 30 0 l 18 0 l 17 6 q 17 9 19 16 z"},"h":{"x_min":0,"x_max":510,"ha":510,"o":"m 19 12 q 76 22 84 27 q 90 31 90 43 l 89 75 l 90 132 l 89 278 l 89 332 l 89 371 l 91 418 q 91 529 89 551 q 86 573 80 578 q 68 589 16 602 l 16 604 q 16 607 17 614 q 23 615 30 616 q 36 618 42 618 q 100 635 126 650 l 150 650 q 151 637 151 564 l 151 502 l 151 422 l 149 323 q 149 314 150 304 q 181 339 195 351 q 221 372 250 384 q 278 396 310 396 q 370 396 408 345 q 430 315 430 260 l 429 210 l 429 183 l 427 134 q 425 74 425 63 q 425 50 426 29 l 454 22 q 482 17 497 12 l 497 -3 l 393 0 q 384 0 345 -2 q 321 -3 317 -3 l 306 -3 q 304 1 304 4 l 304 8 q 311 17 329 20 l 358 27 q 364 32 365 37 q 367 50 370 163 l 371 199 q 373 256 362 294 q 355 320 331 335 q 307 351 275 351 q 249 351 225 339 q 209 331 187 311 q 164 290 155 275 q 149 266 149 243 l 150 209 l 149 173 q 149 169 150 112 l 150 81 l 151 47 q 151 40 152 36 l 221 20 q 227 18 237 14 l 239 8 q 239 6 236 0 q 222 0 215 0 l 177 0 l 93 0 l 30 -2 q 25 -2 15 -1 l 15 2 q 15 6 19 12 z"},"z":{"x_min":0,"x_max":427,"ha":427,"o":"m 26 -1 l 27 9 q 85 74 108 104 l 147 154 q 154 161 203 217 l 247 269 q 261 284 307 346 q 302 349 296 349 l 276 350 q 241 351 184 349 q 143 347 121 339 q 105 333 92 320 q 72 300 63 283 q 59 274 49 268 q 44 269 42 273 q 43 278 51 299 q 58 320 62 337 q 79 391 92 423 l 109 423 q 108 417 108 414 q 105 399 105 392 q 105 382 114 377 q 126 371 194 371 q 210 371 232 372 q 321 376 345 376 q 354 376 387 374 q 388 369 388 365 q 388 356 385 352 q 373 332 344 293 l 244 172 l 120 21 q 129 21 152 20 l 270 20 q 290 19 310 29 q 331 39 347 62 q 363 85 372 116 q 376 119 380 119 q 386 119 389 114 l 379 44 q 375 5 368 -3 l 72 -2 l 42 -2 q 33 -2 26 -1 z"},"B":{"x_min":0,"x_max":615,"ha":615,"o":"m 13 605 l 13 620 q 21 622 26 623 l 72 625 q 129 630 200 633 q 229 634 290 634 q 373 634 411 622 q 467 604 495 567 q 522 531 522 486 q 522 414 419 365 l 417 361 q 470 347 503 321 q 537 296 555 259 q 568 232 568 189 q 568 116 502 59 q 436 2 320 2 l 247 2 l 173 0 q 76 -1 59 -1 q 42 -1 25 0 l 25 6 q 25 12 28 14 q 31 17 39 19 q 100 32 108 36 q 116 41 119 51 q 125 71 125 152 q 125 159 125 170 q 124 203 124 208 l 124 259 q 124 388 121 484 l 120 582 l 120 594 q 78 600 46 602 q 26 602 13 605 z m 207 358 q 231 353 258 353 q 364 353 401 399 q 439 446 439 492 q 439 512 432 533 q 426 555 409 572 q 392 589 367 597 q 325 611 280 611 q 239 611 203 602 q 203 592 203 587 q 203 582 204 559 q 204 544 204 530 l 203 471 l 203 436 l 207 367 z m 322 26 q 370 29 403 46 q 418 54 439 74 q 459 95 471 123 q 482 151 482 178 q 482 198 474 227 q 466 256 447 279 q 428 301 390 315 q 352 330 306 330 q 217 330 206 326 q 206 315 206 310 l 206 292 l 206 255 l 206 213 q 207 99 211 78 q 215 57 238 42 q 260 26 322 26 z"},"K":{"x_min":0,"x_max":740,"ha":740,"o":"m 217 313 q 223 318 236 327 q 264 343 331 393 l 464 502 q 520 548 542 575 q 546 581 549 587 q 540 593 529 596 q 518 599 493 601 q 469 602 464 605 q 459 608 459 613 q 459 619 463 622 q 469 626 481 626 q 500 626 513 623 q 527 621 575 621 q 587 621 592 621 l 668 625 q 680 626 687 626 q 692 626 704 625 q 704 613 702 606 q 649 600 625 590 q 610 584 567 558 q 534 538 507 515 l 381 409 l 305 347 q 307 344 311 340 q 314 338 326 327 q 377 279 464 209 q 551 140 601 93 q 673 23 737 16 q 752 14 759 7 l 760 2 l 759 -5 q 742 -6 736 -6 q 714 -6 668 -2 q 642 0 624 0 q 554 0 463 -6 q 462 0 462 4 l 462 8 q 469 14 488 19 q 514 25 543 26 q 550 26 557 27 q 552 35 541 45 q 539 47 528 58 q 517 69 488 94 l 430 141 l 341 216 q 296 254 217 313 z m 28 6 q 31 11 36 12 q 85 16 113 29 q 123 38 123 59 l 123 106 l 123 197 l 124 237 l 121 373 l 122 464 q 122 541 119 567 q 118 577 112 587 q 104 592 98 593 q 77 597 43 599 q 37 604 37 610 q 37 613 39 618 q 66 619 135 619 q 167 619 186 620 q 212 621 250 624 q 266 623 288 623 q 293 620 293 616 q 293 613 292 609 q 286 606 270 604 q 228 600 212 586 q 202 576 202 549 l 203 540 l 202 356 l 200 229 l 204 104 q 204 44 207 38 q 209 32 214 29 q 231 19 267 15 q 275 14 284 12 q 287 5 287 1 q 287 -4 281 -8 l 265 -9 q 255 -9 218 -5 q 181 -2 163 -2 q 148 -2 121 -5 q 94 -9 48 -9 q 41 -9 29 -8 z"},"R":{"x_min":0,"x_max":625,"ha":625,"o":"m 27 15 q 99 23 108 26 q 114 29 120 41 l 120 46 q 120 59 124 135 q 125 156 125 177 l 123 235 l 124 301 l 124 423 l 124 511 q 125 567 115 579 q 106 591 69 596 q 31 602 27 604 q 23 606 23 612 q 23 615 25 621 q 30 625 47 625 q 50 625 61 627 q 72 628 82 628 l 122 628 l 250 629 q 359 629 403 613 q 446 597 472 559 q 498 521 498 473 q 498 383 404 336 q 388 328 378 321 q 395 286 425 237 l 487 130 q 524 72 538 57 q 552 42 573 32 q 593 22 641 14 q 641 9 641 6 q 641 3 641 -1 q 574 -2 484 -2 q 478 -2 466 -1 q 432 65 385 145 l 312 276 q 298 297 288 302 q 279 307 263 307 l 222 307 l 208 307 q 207 292 207 243 l 207 76 q 206 67 210 50 q 214 41 224 35 q 233 30 279 19 l 299 14 q 303 9 303 0 q 290 -2 284 -2 q 240 -2 222 -1 q 213 0 207 0 l 141 -1 l 76 -1 q 71 -1 31 -2 l 21 0 l 21 4 q 21 9 27 15 z m 209 334 q 222 333 229 333 q 264 333 310 342 q 342 348 362 363 q 382 377 395 405 q 409 434 409 464 q 409 497 388 534 q 372 562 333 582 q 295 601 241 601 q 228 601 207 599 q 205 574 205 560 l 208 469 l 207 431 q 207 393 209 334 z"},"T":{"x_min":0,"x_max":615,"ha":615,"o":"m 18 552 l 38 625 q 40 640 43 644 q 46 648 51 648 q 60 648 71 627 q 79 612 84 608 q 90 604 100 603 l 105 603 l 126 601 l 241 600 l 377 600 l 417 600 l 493 602 q 498 602 505 601 q 539 598 546 598 q 554 598 558 603 q 560 604 574 636 q 581 650 590 650 q 594 650 600 648 q 602 638 602 630 l 602 611 l 602 569 q 602 554 600 472 q 600 466 598 462 q 592 458 588 458 q 584 458 582 462 q 579 466 574 485 q 564 529 550 548 q 540 560 522 565 q 503 571 434 571 q 378 571 352 569 q 351 549 351 533 l 354 230 q 354 212 353 162 l 353 97 l 353 61 q 353 43 358 36 q 364 29 390 22 q 435 11 450 8 q 459 7 465 4 l 465 -10 l 396 -8 q 339 -8 310 -6 l 239 -9 l 187 -12 q 165 -12 160 -11 l 153 -8 q 154 3 157 6 q 161 9 175 11 q 196 14 224 22 q 251 29 260 37 q 265 42 267 52 q 271 73 271 136 l 271 219 l 270 400 l 268 439 l 267 570 q 236 573 188 573 q 118 573 103 564 q 79 551 32 484 q 16 459 4 459 l 0 460 q -2 463 -2 466 q -2 472 6 501 q 16 539 18 552 z"},"P":{"x_min":0,"x_max":562,"ha":562,"o":"m 21 624 q 30 625 33 625 q 49 625 87 623 q 107 623 115 623 q 125 623 160 625 l 243 629 q 276 632 319 632 q 396 632 441 611 q 487 589 511 542 q 536 496 536 450 q 536 374 482 318 q 429 262 338 262 q 312 262 295 267 q 278 272 256 287 q 247 293 245 300 q 247 304 250 305 q 257 305 265 302 q 281 296 307 296 q 345 296 380 315 q 414 334 432 370 q 449 405 449 444 q 449 482 431 518 q 412 554 382 575 q 365 587 329 596 q 294 604 274 604 q 214 604 203 595 l 202 588 l 204 533 l 204 523 q 203 510 203 483 q 203 383 206 359 l 206 332 l 212 108 q 212 104 211 90 q 209 77 209 67 q 209 44 213 32 q 225 28 282 16 q 308 9 311 8 q 314 7 317 2 q 315 -5 312 -8 q 309 -10 300 -10 q 294 -10 272 -7 q 230 -3 207 -3 l 121 -6 l 69 -5 q 64 -5 41 -6 l 41 7 l 104 19 q 120 23 123 28 q 128 35 128 55 q 128 59 128 74 q 129 84 129 102 q 129 160 124 348 q 122 436 122 526 l 122 535 q 122 570 111 579 q 93 595 21 605 q 19 611 19 614 q 19 618 21 624 z"},"|":{"x_min":0,"x_max":500,"ha":500,"o":"m 229 654 l 272 654 l 272 -258 l 229 -258 z"},"t":{"x_min":0,"x_max":292,"ha":292,"o":"m 140 482 l 155 482 l 157 436 l 156 375 q 165 375 167 375 q 180 375 216 377 q 239 378 260 378 q 270 378 289 378 q 290 368 290 362 q 290 356 287 342 l 279 342 l 203 340 l 166 339 l 157 338 q 153 326 153 310 l 154 236 l 153 107 q 153 57 167 40 q 179 23 205 23 q 217 23 252 31 q 263 33 281 47 l 286 47 q 290 47 293 44 q 295 42 295 37 l 295 34 q 274 11 247 0 q 220 -10 175 -10 q 143 -10 122 4 q 102 19 96 39 q 90 59 90 126 l 92 236 l 91 289 l 91 309 q 91 322 90 336 l 82 336 l 42 335 l 38 334 q 33 334 30 337 q 27 339 27 343 q 27 349 31 352 q 35 356 53 364 q 66 369 83 384 q 100 399 111 417 q 117 427 128 454 q 136 474 140 482 z"},"M":{"x_min":0,"x_max":833,"ha":833,"o":"m 7 11 q 22 21 62 26 q 92 27 98 31 q 102 34 104 39 q 111 57 115 137 q 119 241 129 414 q 137 545 137 578 l 137 591 q 102 598 25 606 q 21 614 21 618 q 21 620 24 626 q 32 629 37 629 q 41 629 54 627 q 78 624 120 624 q 133 624 167 626 q 190 627 193 627 q 201 627 211 625 q 216 620 218 616 l 239 570 l 377 264 l 434 136 q 502 270 540 375 q 542 382 545 389 q 550 397 554 407 q 558 417 585 485 q 597 513 604 532 q 631 610 636 622 q 646 625 652 625 q 660 625 672 624 q 700 623 761 623 q 799 623 824 624 q 825 618 825 616 q 825 612 823 606 q 808 598 786 597 q 742 595 730 590 q 719 586 716 579 q 712 572 710 534 l 710 512 l 710 488 q 710 415 714 242 l 713 146 l 714 85 q 714 49 717 42 q 721 36 737 30 q 763 21 823 12 q 826 9 826 5 q 826 1 826 -4 l 803 -4 q 774 -4 741 -3 q 707 -1 705 -1 q 604 -1 572 -3 q 552 -4 546 -4 q 543 -4 539 -2 l 539 4 q 539 8 541 13 q 557 20 584 22 q 615 31 629 40 q 634 59 634 116 l 632 214 q 632 230 634 274 q 636 318 636 417 q 636 496 632 537 q 624 520 599 462 l 592 444 l 591 441 l 519 270 l 493 204 l 459 124 q 437 69 421 26 q 415 7 410 -4 l 399 -4 q 344 157 267 327 q 191 496 160 550 q 156 529 151 428 q 145 305 145 157 q 145 111 152 53 q 154 36 166 28 q 178 20 229 19 q 249 19 266 16 q 270 9 270 5 q 270 3 267 -3 l 115 2 q 99 2 63 0 q 44 -1 7 -2 z"},"g":{"x_min":0,"x_max":448,"ha":448,"o":"m 132 -32 q 126 -29 94 -16 q 57 8 47 20 q 38 31 38 45 q 38 58 45 66 q 56 77 87 87 q 119 98 140 107 q 133 112 120 120 q 47 165 47 245 q 47 310 93 355 q 139 400 211 400 q 244 400 271 391 q 287 386 318 367 q 337 354 341 353 q 349 351 358 351 q 367 351 399 355 q 431 359 437 359 q 448 359 455 354 q 461 345 461 322 q 461 314 457 310 q 453 306 445 306 q 431 306 400 315 q 368 323 361 323 q 359 323 352 322 q 373 280 373 246 q 373 211 351 174 q 329 137 291 117 q 252 98 212 98 q 209 98 196 98 q 151 98 113 76 q 95 64 95 55 q 95 44 113 35 q 159 10 289 6 q 345 4 376 -10 q 407 -24 423 -52 q 439 -80 439 -109 q 439 -148 412 -182 q 385 -216 331 -237 q 276 -258 205 -258 q 127 -258 84 -239 q 42 -220 24 -197 q 6 -175 6 -153 q 6 -134 26 -105 q 45 -77 107 -45 q 125 -36 132 -32 z m 112 247 q 112 203 125 173 q 139 144 162 129 q 185 115 208 115 q 250 115 279 147 q 307 180 307 246 q 307 313 277 348 q 248 383 207 383 q 160 383 136 350 q 112 316 112 247 z m 96 -206 q 141 -240 208 -240 q 257 -240 305 -224 q 353 -209 375 -180 q 397 -152 397 -126 q 397 -111 390 -95 q 382 -80 368 -70 q 355 -60 333 -54 q 317 -50 289 -48 q 207 -42 188 -42 q 136 -42 95 -77 q 63 -104 63 -142 q 63 -177 96 -206 z"},"j":{"x_min":0,"x_max":229,"ha":229,"o":"m 62 591 q 62 609 75 622 q 87 634 105 634 q 123 634 135 622 q 148 610 148 590 q 148 570 134 555 q 125 544 105 544 q 87 544 75 557 q 62 570 62 591 z m 21 -252 l 58 -207 q 71 -186 78 -163 q 86 -140 89 -106 q 93 -50 93 -7 q 93 5 92 27 l 93 103 q 93 246 91 288 q 89 313 83 320 q 74 329 41 332 q 37 332 31 333 l 32 351 q 96 367 125 405 q 131 413 139 421 l 142 421 q 145 421 149 419 l 150 242 q 154 56 154 40 q 154 -54 144 -96 q 135 -139 108 -181 q 90 -210 55 -241 l 35 -259 l 28 -263 q 24 -259 21 -252 z"},"i":{"x_min":0,"x_max":229,"ha":229,"o":"m 69 600 q 69 616 82 628 q 94 640 112 640 q 130 640 144 626 q 157 613 157 598 q 157 583 144 570 q 130 556 112 556 q 94 556 82 568 q 69 581 69 600 z m 28 347 l 29 361 q 61 371 63 372 q 81 380 100 396 q 119 412 132 432 q 138 433 142 433 l 147 433 q 149 409 149 398 q 149 396 148 376 l 148 351 l 149 210 l 147 61 q 147 43 153 36 q 160 29 191 20 q 210 15 220 11 q 222 7 222 5 q 222 2 219 -2 q 200 -2 170 0 q 130 3 117 3 q 110 3 39 1 q 24 0 10 -1 q 8 -1 2 0 q 0 3 0 6 q 0 13 9 17 q 11 18 59 28 q 75 31 80 38 q 88 48 88 70 q 89 108 89 276 q 89 310 86 318 q 83 324 73 332 q 62 339 28 347 z"},"y":{"x_min":0,"x_max":417,"ha":417,"o":"m 6 385 q 17 386 24 386 l 47 386 l 79 387 l 121 385 l 154 386 q 181 386 203 383 q 205 378 205 375 l 204 371 q 194 366 172 364 q 142 362 129 354 l 128 348 q 128 343 132 333 q 134 328 138 316 q 149 280 185 176 q 210 102 232 48 q 246 77 264 122 l 305 238 q 319 276 326 314 q 329 329 329 338 q 329 345 323 352 q 316 358 297 362 q 263 371 260 373 q 257 375 256 383 q 259 385 263 387 l 293 387 l 326 386 l 375 387 l 406 386 l 414 387 q 417 387 425 386 q 430 383 430 378 q 430 373 426 369 l 416 368 q 388 364 373 353 q 364 347 358 329 q 356 322 352 311 q 350 305 345 292 q 340 278 333 259 l 327 246 l 327 243 l 244 24 l 183 -140 q 177 -152 169 -170 q 151 -205 147 -208 q 133 -227 122 -234 l 97 -245 q 90 -247 82 -247 q 60 -247 49 -237 q 39 -228 39 -211 q 39 -195 54 -183 q 59 -181 64 -179 l 70 -177 q 114 -185 125 -185 q 135 -180 140 -172 q 164 -137 181 -93 q 198 -49 198 -34 q 198 -17 185 15 l 131 158 q 120 186 64 340 q 61 350 55 354 l 22 367 l 12 369 q 3 372 3 378 z"},"@":{"x_min":0,"x_max":917,"ha":917,"o":"m 688 468 l 630 273 q 598 162 592 133 q 585 105 585 87 q 585 72 595 61 q 606 50 621 50 q 657 50 707 86 q 757 122 793 202 q 829 282 829 369 q 829 452 788 523 q 748 594 675 632 q 601 669 512 669 q 399 669 303 610 q 206 550 150 438 q 93 325 93 204 q 93 92 143 0 q 192 -92 282 -139 q 372 -186 476 -186 q 604 -186 708 -117 q 812 -48 868 84 l 896 84 q 853 -50 737 -133 q 621 -216 473 -216 q 357 -216 257 -161 q 158 -106 103 -5 q 47 96 47 217 q 47 346 108 457 q 168 569 278 632 q 387 694 509 694 q 610 694 692 653 q 773 611 815 531 q 858 450 858 360 q 858 271 818 183 q 778 95 717 55 q 655 15 588 15 q 551 15 532 33 q 514 50 514 82 q 514 109 522 154 q 455 73 411 44 q 367 15 330 15 q 295 15 269 46 q 242 77 242 128 q 242 199 288 287 q 334 375 411 430 q 466 471 511 471 q 543 471 565 454 q 587 437 595 403 l 611 457 z m 517 448 q 479 448 441 408 q 386 352 348 256 q 319 186 319 143 q 319 112 336 93 q 354 74 375 74 q 403 74 434 95 q 465 116 500 161 q 534 205 549 249 q 577 328 577 378 q 577 410 559 429 q 542 448 517 448 z"},".":{"x_min":0,"x_max":219,"ha":219,"o":"m 59 40 q 59 61 74 77 q 90 93 111 93 q 132 93 146 78 q 160 63 160 40 q 160 17 145 1 q 130 -14 109 -14 q 89 -14 74 2 q 59 18 59 40 z"},"p":{"x_min":0,"x_max":510,"ha":510,"o":"m 12 -255 q 12 -250 12 -245 q 12 -242 13 -237 l 62 -227 q 73 -221 81 -213 q 83 -204 83 -195 q 83 -120 79 91 l 78 270 q 77 312 72 324 q 70 330 65 333 q 53 342 16 349 l 19 363 q 72 386 90 398 q 107 411 124 433 l 129 435 q 133 435 139 432 q 139 401 139 391 l 139 337 q 175 365 214 378 q 253 392 295 392 q 371 392 422 339 q 474 286 474 202 q 474 140 445 91 q 416 42 365 17 q 314 -7 262 -7 q 218 -7 162 17 q 152 21 145 23 q 144 -16 144 -46 q 144 -197 152 -215 q 157 -225 180 -227 q 219 -229 231 -238 q 239 -242 241 -255 l 193 -256 l 149 -255 l 76 -256 z m 140 304 q 139 297 139 291 q 139 117 142 96 q 149 57 169 42 q 201 17 260 17 q 321 17 363 59 q 405 101 405 168 q 405 250 361 297 q 316 344 244 344 q 213 344 187 334 q 161 324 140 304 z"},"X":{"x_min":0,"x_max":698,"ha":698,"o":"m 5 -5 l 7 8 q 17 12 50 16 q 92 25 98 29 q 107 34 122 48 q 151 78 168 100 q 175 109 206 143 q 283 229 322 287 q 247 385 179 481 q 111 578 94 591 q 88 595 38 600 q 20 601 11 603 q 8 611 8 617 l 9 622 q 44 624 52 624 l 65 624 l 98 621 l 180 617 q 204 615 245 615 q 257 615 278 620 q 290 622 296 622 q 302 622 315 620 q 317 613 317 610 l 317 606 q 308 603 280 599 q 251 595 239 591 q 227 586 222 581 q 220 573 220 568 q 220 564 222 559 q 236 528 288 459 l 373 348 q 401 382 434 432 q 507 541 511 550 q 515 559 515 565 q 515 575 508 582 q 501 589 483 592 q 444 601 437 601 q 433 603 429 604 q 425 612 425 617 l 426 622 l 522 624 l 614 624 l 664 623 l 671 621 l 672 611 l 612 590 q 581 575 573 568 q 558 556 517 506 q 476 457 438 403 q 431 393 409 366 q 397 350 385 332 q 386 328 390 324 l 396 315 l 542 120 q 588 56 609 37 q 622 24 639 19 q 656 13 704 8 q 708 0 708 -5 l 707 -10 l 690 -10 q 683 -10 667 -8 q 635 -4 584 -4 l 536 -3 l 449 -6 q 419 -9 415 -9 q 410 -9 403 -8 q 401 -2 401 0 q 401 3 403 8 l 431 11 l 485 21 q 494 24 498 34 q 495 44 491 50 q 472 83 416 160 q 359 238 336 267 q 330 262 276 191 q 207 100 200 86 q 190 68 190 54 q 190 36 209 26 q 223 20 303 7 q 304 1 304 -2 q 304 -5 303 -9 l 288 -10 q 278 -10 228 -3 q 138 0 102 0 q 72 0 41 -4 q 24 -5 21 -5 q 14 -5 5 -5 z"},"*":{"x_min":0,"x_max":427,"ha":427,"o":"m 29 354 q 51 371 175 431 l 181 436 q 170 442 152 453 q 149 454 108 478 q 101 483 33 519 q 42 538 51 553 q 168 474 194 460 q 194 475 194 478 l 194 530 l 195 578 q 195 603 192 631 q 212 632 230 631 l 230 621 q 230 611 227 562 l 224 490 q 223 482 223 478 q 223 472 225 459 q 234 465 242 471 q 286 503 375 550 q 384 535 393 518 q 384 512 295 466 q 244 440 239 437 q 254 428 270 420 q 293 409 298 406 l 348 378 q 368 369 373 367 q 379 362 392 354 q 384 339 373 322 q 367 325 331 347 q 295 370 286 376 q 248 403 225 413 l 224 399 q 224 301 228 272 q 230 255 230 241 l 216 240 q 208 240 192 243 q 192 253 192 260 l 192 273 l 194 387 l 195 409 q 176 399 135 373 q 95 346 46 322 z"},"Y":{"x_min":0,"x_max":656,"ha":656,"o":"m -10 629 l 14 629 q 26 629 69 628 q 136 625 180 625 l 237 626 q 249 626 260 624 q 264 620 264 616 l 264 610 l 251 604 l 246 604 l 219 604 l 205 604 q 188 604 178 597 q 170 592 170 586 q 170 580 177 570 q 179 566 185 558 q 194 542 210 520 q 233 487 259 443 q 270 426 281 410 l 355 297 q 362 307 375 325 l 445 426 l 526 547 q 537 564 539 572 q 540 576 540 580 q 540 590 531 597 q 516 607 465 612 q 462 612 456 613 q 453 619 453 623 q 453 626 453 629 l 479 630 l 570 627 l 644 629 q 647 629 665 628 l 663 611 q 660 610 652 610 l 641 608 q 638 608 631 607 q 621 604 615 599 q 543 523 493 456 q 443 389 408 333 q 397 315 390 307 q 377 290 375 282 q 370 263 370 225 q 370 73 375 45 q 378 32 383 29 q 396 22 484 14 l 484 8 q 484 2 480 -6 l 355 -1 l 272 -5 l 204 -5 q 194 -5 182 -5 q 180 0 180 3 q 180 5 182 10 q 185 13 188 13 l 251 23 q 284 34 288 38 q 294 43 295 56 q 296 64 296 191 q 296 239 293 249 q 290 260 272 286 l 208 383 l 99 542 q 71 583 50 598 q 41 604 3 607 q 0 607 -8 608 z"},"c":{"x_min":0,"x_max":417,"ha":417,"o":"m 390 89 l 391 58 q 353 17 315 1 q 278 -15 228 -15 q 173 -15 129 13 q 85 42 62 94 q 38 146 38 197 q 38 252 67 301 q 95 350 142 374 q 189 398 261 398 q 329 398 365 375 q 385 361 385 340 q 385 324 375 314 q 364 304 348 304 q 324 304 294 334 q 276 353 262 360 q 247 367 229 367 q 186 367 157 331 q 117 280 117 204 q 117 125 158 78 q 199 31 253 31 q 292 31 321 43 q 351 56 390 89 z"},"!":{"x_min":0,"x_max":219,"ha":219,"o":"m 119 142 q 114 141 111 141 q 108 141 101 142 l 85 423 q 84 453 77 498 q 67 559 67 585 q 67 611 80 625 q 92 638 109 638 q 128 638 142 625 q 155 611 155 587 q 155 564 145 480 q 126 318 125 270 l 121 152 q 121 148 119 142 z m 61 39 q 61 59 76 74 q 91 89 112 89 q 133 89 147 74 q 161 60 161 42 q 161 23 145 5 q 128 -12 112 -12 q 95 -12 78 5 q 61 22 61 39 z"},"/":{"x_min":0,"x_max":500,"ha":500,"o":"m 400 696 l 443 696 l 99 -135 l 57 -135 z"},"[":{"x_min":0,"x_max":271,"ha":271,"o":"m 105 627 l 294 626 l 295 606 l 228 607 q 188 607 174 598 l 172 596 q 168 573 168 519 l 169 499 l 168 452 l 168 414 l 166 388 l 167 374 l 167 327 q 167 323 167 294 q 168 280 168 275 l 168 209 l 169 145 l 167 99 l 169 -31 q 169 -87 167 -117 l 167 -125 l 169 -186 q 170 -196 173 -200 q 176 -204 187 -206 q 209 -211 248 -211 l 268 -210 q 281 -210 293 -211 l 294 -232 l 104 -232 l 102 -135 l 106 -27 q 107 -1 107 39 q 107 58 106 66 l 104 108 l 105 252 l 104 313 q 104 357 105 376 q 106 394 106 403 l 104 455 l 105 524 l 104 611 z"},"6":{"x_min":0,"x_max":469,"ha":469,"o":"m 384 640 q 389 632 391 624 q 388 618 381 616 q 361 611 321 588 q 312 583 264 542 q 243 528 213 488 q 173 434 155 392 q 138 350 124 281 q 120 262 119 212 l 117 194 q 117 132 154 70 q 191 7 246 7 q 275 7 300 25 q 325 42 340 84 q 354 126 354 186 q 354 267 323 306 q 292 345 249 345 q 236 345 226 341 l 222 340 q 215 340 208 354 q 221 362 239 368 q 257 373 263 373 q 266 373 307 366 l 321 359 q 345 352 357 342 q 379 324 397 296 q 406 282 420 239 q 421 236 427 196 l 425 147 q 415 103 405 85 q 392 59 359 27 q 343 11 316 0 q 279 -14 238 -14 q 159 -14 104 50 q 49 113 49 233 q 49 300 69 360 q 90 419 127 469 q 153 503 197 542 q 240 580 279 602 q 333 630 384 640 z"},"r":{"x_min":0,"x_max":333,"ha":333,"o":"m 20 -1 l 18 5 q 18 8 22 15 l 51 21 l 92 28 q 97 31 99 35 q 102 42 102 73 q 102 239 100 264 q 98 290 91 297 q 84 304 56 308 q 39 310 29 314 l 31 329 q 83 350 100 365 q 125 387 142 422 l 158 422 q 161 397 161 313 l 161 305 q 161 302 162 296 q 180 330 208 358 l 219 369 q 226 377 232 381 q 267 402 283 402 q 305 402 318 387 q 332 373 332 352 q 332 335 322 326 q 309 314 292 314 q 284 314 261 322 q 238 331 231 331 q 217 331 212 326 q 198 315 179 282 q 164 257 164 236 l 166 156 l 167 59 q 168 42 171 38 q 173 34 181 29 q 233 25 243 23 q 250 22 253 22 q 274 21 283 16 q 287 14 287 9 q 287 6 283 1 l 229 1 l 208 2 l 179 1 l 129 1 l 102 0 z"},"2":{"x_min":0,"x_max":469,"ha":469,"o":"m 426 1 q 353 4 230 4 l 124 1 l 77 2 l 39 1 q 33 1 22 3 q 31 24 44 41 q 85 91 163 169 q 272 279 307 342 q 342 405 342 460 q 342 512 307 547 q 271 582 220 582 q 189 582 161 568 q 132 553 114 531 q 103 517 84 475 q 74 451 72 449 q 69 446 65 446 q 62 446 58 450 q 54 454 54 460 q 54 482 76 531 q 99 579 142 606 q 185 634 242 634 q 317 634 367 585 q 417 537 417 469 q 417 416 383 361 q 349 306 226 193 q 185 156 168 138 q 151 121 99 62 q 174 59 235 59 q 248 59 264 60 q 292 61 297 61 l 365 60 q 376 60 388 70 q 400 81 420 131 l 432 131 q 434 131 439 131 q 441 126 441 124 l 440 120 q 437 105 434 68 q 432 46 426 1 z"},"{":{"x_min":0,"x_max":479,"ha":479,"o":"m 411 -199 l 411 -216 q 329 -205 278 -150 q 227 -95 227 -28 q 227 8 238 54 q 250 100 250 127 q 250 162 220 192 q 190 223 138 229 l 138 250 q 190 256 220 287 q 250 317 250 352 q 250 379 238 425 q 227 471 227 507 q 227 573 278 628 q 329 684 411 694 l 411 677 q 354 664 327 633 q 300 602 300 566 q 300 536 311 489 q 322 441 322 408 q 322 359 286 312 q 250 266 178 241 q 249 215 285 167 q 322 120 322 71 q 322 38 311 -10 q 300 -57 300 -87 q 300 -123 327 -154 q 354 -185 411 -199 z"},"9":{"x_min":0,"x_max":469,"ha":469,"o":"m 349 591 q 385 552 401 514 q 422 460 422 390 q 422 310 398 247 q 375 185 342 139 q 308 93 271 64 q 235 34 181 10 q 127 -15 91 -15 l 87 -15 q 82 -10 82 -4 q 82 3 84 6 q 86 8 97 9 q 115 10 158 31 q 216 61 247 96 q 299 155 325 230 q 351 306 351 399 q 351 477 333 525 q 315 573 283 595 q 251 616 221 616 q 182 616 155 579 q 117 527 117 430 q 117 353 152 308 q 177 277 221 277 q 236 277 243 280 l 247 281 q 252 281 256 276 q 262 269 262 261 l 256 257 q 246 252 232 250 q 218 247 201 247 q 141 247 92 302 q 44 356 44 439 q 44 524 98 581 q 153 638 229 638 q 261 638 286 629 q 311 620 349 591 z"}," ":{"x_min":0,"x_max":250,"ha":250,"o":""},"I":{"x_min":0,"x_max":354,"ha":354,"o":"m 21 16 q 32 20 43 21 q 118 26 128 39 q 139 52 139 164 l 139 215 l 139 269 l 137 328 l 138 363 l 137 401 l 137 446 l 136 466 l 137 491 q 138 500 138 512 q 138 542 135 577 q 133 583 129 590 q 111 599 71 602 q 31 605 25 609 q 21 612 21 625 l 62 625 l 191 622 q 241 622 324 625 q 324 617 323 610 q 313 607 291 604 q 244 599 234 594 q 228 592 225 586 q 220 577 219 553 l 216 490 l 218 273 l 218 187 q 217 146 217 132 q 217 77 220 62 q 223 47 229 40 q 236 34 251 30 q 273 24 286 24 q 313 23 321 16 q 322 10 322 5 l 322 1 q 278 0 257 0 q 245 0 213 1 l 146 0 l 31 1 l 22 1 z"},"H":{"x_min":0,"x_max":760,"ha":760,"o":"m 19 -7 l 20 3 q 36 13 58 15 q 93 20 102 24 q 111 29 115 37 q 122 53 122 70 l 121 107 l 122 141 l 121 181 q 121 206 122 243 q 124 281 124 283 l 124 417 q 124 448 125 485 q 126 522 126 536 q 126 578 125 585 q 123 592 117 595 q 112 598 82 600 q 59 602 50 604 q 48 609 48 612 q 48 616 48 622 q 60 623 66 623 l 112 622 q 161 622 216 626 q 243 628 297 629 q 298 625 298 621 q 298 616 296 614 q 293 611 288 610 q 224 604 213 594 q 201 583 201 541 q 201 461 204 377 l 206 332 q 208 330 269 327 q 286 326 289 326 l 360 327 l 408 325 l 532 329 q 555 330 560 331 q 562 416 562 496 q 562 572 559 586 q 557 594 552 597 q 549 599 501 605 q 493 606 486 607 q 483 615 483 624 q 500 626 504 626 l 537 625 q 581 622 626 622 q 655 622 722 627 q 721 617 719 609 q 701 602 675 600 q 658 599 647 595 q 638 588 638 567 q 638 562 638 556 q 639 539 639 533 l 639 477 l 639 442 l 638 396 l 639 312 l 638 231 q 638 208 639 157 l 639 91 q 639 58 645 43 q 647 37 654 34 l 694 25 q 723 18 729 13 q 734 8 734 2 l 733 -4 l 730 -4 q 728 -4 724 -3 q 671 6 612 6 q 566 6 547 5 q 528 3 467 -6 q 466 0 466 3 q 466 7 467 13 q 482 21 515 25 q 539 27 553 41 q 562 49 562 66 l 562 137 q 563 168 563 171 q 563 213 562 292 q 561 299 557 301 q 543 305 427 299 q 403 297 392 297 q 380 297 343 299 q 305 300 273 300 q 256 300 245 299 q 222 299 220 299 q 208 299 204 294 q 200 290 200 278 l 201 244 q 201 236 198 152 q 198 135 198 124 q 198 57 203 35 q 205 24 211 21 q 216 18 250 10 q 272 5 284 1 l 287 -4 q 287 -6 285 -8 q 282 -10 276 -10 q 272 -10 267 -10 q 262 -10 246 -9 q 221 -9 184 -6 q 160 -4 142 -4 q 110 -4 42 -7 q 28 -7 19 -7 z"},"4":{"x_min":0,"x_max":469,"ha":469,"o":"m 328 637 l 350 637 q 350 622 350 619 l 351 547 l 348 482 l 350 411 l 350 354 l 351 277 q 351 259 350 222 l 360 222 l 395 222 l 428 221 l 456 222 q 457 207 457 200 q 457 192 456 177 q 425 176 423 176 l 398 176 l 379 176 q 371 176 350 177 q 349 108 350 -7 q 347 -10 344 -11 l 313 -12 q 304 -12 284 -11 q 285 47 285 72 q 285 94 284 112 q 283 145 283 150 q 283 159 284 177 q 263 175 252 175 q 246 175 239 175 q 189 178 183 178 q 177 178 152 174 l 102 177 l 74 176 l 56 179 l 32 174 l 28 177 q 27 188 27 193 q 27 199 28 209 q 42 228 78 283 l 173 421 q 208 473 232 504 q 256 535 280 570 q 303 605 328 637 z m 284 222 l 284 302 l 284 366 l 284 529 q 244 477 172 370 q 91 248 76 222 q 97 223 108 223 l 242 221 q 256 221 284 222 z"},"~":{"x_min":0,"x_max":667,"ha":667,"o":"m 572 377 l 593 377 q 592 315 558 280 q 524 244 475 244 q 452 244 430 250 q 401 259 293 303 q 217 334 186 334 q 151 334 127 313 q 104 292 94 245 l 73 245 q 77 310 109 344 q 142 378 187 378 q 208 378 230 372 q 280 357 372 318 q 447 286 481 286 q 518 286 542 310 q 567 333 572 377 z"},"D":{"x_min":0,"x_max":771,"ha":771,"o":"m 12 10 q 30 18 54 20 q 88 24 105 37 q 119 63 119 173 l 119 250 l 120 297 l 119 331 l 120 394 l 118 553 q 118 580 110 588 q 99 600 51 610 q 31 615 26 618 q 22 622 21 632 q 32 635 37 635 l 71 635 l 89 635 q 107 635 129 631 q 174 628 222 628 q 235 628 261 630 q 328 634 357 634 q 417 634 469 622 q 521 610 577 579 q 612 559 648 515 q 685 472 703 421 q 722 370 722 306 q 722 249 701 193 q 681 137 644 95 q 606 54 568 33 q 530 13 452 -2 q 420 -8 336 -8 q 281 -8 247 -5 q 233 -3 217 -3 q 215 -3 212 -3 l 13 -7 l 12 -3 q 11 0 11 2 z m 260 29 q 297 16 335 16 q 385 16 432 31 q 479 47 516 75 q 552 103 576 138 q 599 174 609 202 q 623 244 623 310 q 623 374 596 439 q 577 484 531 526 q 484 567 420 587 q 357 606 283 606 q 232 606 208 595 q 205 592 202 588 q 199 576 199 565 q 199 559 200 550 q 201 494 201 459 l 201 349 q 201 104 210 77 q 219 49 260 29 z"},"^":{"x_min":0,"x_max":500,"ha":500,"o":"m 250 671 l 469 408 l 438 382 l 250 607 l 63 382 l 32 408 z"},"0":{"x_min":0,"x_max":469,"ha":469,"o":"m 438 308 q 438 258 430 219 q 417 151 394 106 q 370 61 338 29 q 314 6 288 -4 q 262 -15 234 -15 q 186 -15 143 18 q 100 50 67 124 q 35 198 35 299 q 35 377 55 450 q 74 522 106 562 q 138 602 170 619 q 201 637 238 637 q 291 637 340 596 q 389 555 418 468 q 438 410 438 308 z m 364 324 q 364 444 355 487 q 342 558 311 586 q 280 615 238 615 q 204 615 173 592 q 142 570 130 522 q 110 444 110 287 q 110 130 141 68 q 172 6 234 6 q 276 6 307 32 q 338 59 352 130 q 365 202 365 291 z"},"F":{"x_min":0,"x_max":562,"ha":562,"o":"m 29 -7 l 29 5 q 40 10 65 14 q 90 19 100 23 q 109 27 116 34 q 120 55 120 111 l 113 491 l 115 554 q 115 574 108 581 q 101 588 71 594 q 41 601 36 604 q 30 608 30 613 q 30 615 32 619 q 38 623 45 623 q 52 623 75 622 l 88 622 q 95 622 127 623 l 195 623 l 335 625 l 483 631 l 497 631 l 518 632 q 526 632 533 627 q 536 619 537 616 l 536 596 l 541 509 q 541 503 540 495 q 532 492 525 492 q 521 492 519 495 q 515 500 514 515 q 512 536 499 569 q 492 585 478 591 q 448 602 379 602 q 346 602 318 600 q 290 599 283 599 l 245 599 q 222 599 207 592 q 196 588 196 571 l 196 564 q 198 539 198 509 l 196 376 q 196 356 199 339 l 213 338 l 241 339 l 334 339 q 390 339 412 347 q 427 353 434 363 q 437 367 446 402 l 453 442 q 458 445 461 445 q 464 445 469 443 q 471 432 472 409 l 478 229 q 469 226 465 226 l 459 227 q 452 275 435 303 q 429 313 422 314 q 409 317 306 317 q 273 317 261 317 q 232 315 226 315 l 221 315 q 207 315 200 312 q 198 306 198 303 l 198 270 q 198 264 199 221 l 198 59 q 198 52 202 42 q 212 34 239 31 q 266 28 290 18 q 304 12 304 4 q 304 0 302 -2 q 300 -5 295 -7 q 255 1 184 1 q 146 1 104 -5 q 76 -10 39 -10 z"},"`":{"x_min":0,"x_max":333,"ha":333,"o":"m 261 480 l 253 480 q 246 485 156 545 q 113 575 105 586 q 97 598 97 606 q 97 616 105 624 q 113 631 123 631 q 141 631 161 614 q 182 597 225 533 q 236 517 244 507 q 256 490 261 480 z"},"k":{"x_min":0,"x_max":469,"ha":469,"o":"m 26 0 l 25 14 q 29 17 33 18 q 36 19 57 20 q 79 21 84 30 q 89 38 89 96 l 90 289 l 89 323 q 89 328 90 356 q 91 369 91 388 l 89 473 l 90 547 q 90 574 82 581 q 75 589 29 595 l 29 601 q 29 604 29 609 q 57 615 79 624 q 90 629 136 654 l 151 654 q 150 643 150 641 l 150 598 l 150 577 l 151 539 l 151 480 l 151 384 l 150 264 l 150 227 q 150 220 150 208 l 156 207 q 172 207 189 219 q 266 274 286 294 q 305 313 305 322 q 305 328 299 336 q 284 344 266 347 q 261 348 254 349 q 246 352 240 353 l 239 357 q 239 361 241 367 q 318 370 375 370 q 408 370 444 369 l 444 362 q 444 359 442 354 q 435 352 419 349 q 389 344 373 335 q 335 315 295 279 q 271 258 254 243 l 236 228 q 238 225 243 220 q 245 218 250 211 q 256 204 271 188 q 324 132 350 102 q 358 92 368 81 q 406 38 413 33 q 426 24 453 20 q 466 17 475 15 q 477 9 477 6 l 477 1 q 442 4 427 4 l 418 4 l 282 0 q 274 -1 271 -1 q 267 -1 261 1 q 260 5 260 8 l 260 11 q 263 16 265 17 q 313 21 321 23 q 326 24 330 28 q 330 37 315 55 q 301 74 245 137 q 208 177 198 183 q 188 190 169 190 l 150 190 q 148 172 148 109 q 148 51 158 34 q 164 25 184 22 q 204 20 209 15 q 213 12 214 1 q 185 2 165 2 q 133 2 95 0 q 72 0 59 0 q 49 0 26 0 z"},"u":{"x_min":0,"x_max":490,"ha":490,"o":"m 16 383 l 53 383 l 69 382 l 82 383 q 132 383 144 382 l 145 373 q 145 304 143 240 q 141 202 141 196 q 141 110 147 89 q 152 67 173 54 q 194 42 223 42 q 259 42 291 56 q 324 71 347 93 q 349 111 349 134 q 349 207 351 232 q 351 247 351 258 q 351 337 343 348 q 335 358 284 363 q 267 365 259 367 q 255 373 255 376 l 256 382 q 269 383 281 383 l 359 382 q 400 383 403 383 q 408 383 413 383 l 414 347 q 411 273 410 164 l 409 124 l 411 58 q 416 50 419 48 q 425 46 443 46 l 447 46 q 454 46 483 43 q 484 37 484 34 l 484 28 q 418 14 378 0 q 362 -5 351 -8 q 348 9 348 13 l 348 53 q 348 55 348 66 q 341 62 333 55 q 294 25 251 5 q 223 -9 196 -9 q 145 -9 112 29 q 80 67 80 159 q 80 164 80 176 q 82 200 82 209 q 82 212 82 230 q 81 238 81 244 q 81 249 82 264 q 82 279 82 286 q 82 294 82 300 l 81 326 l 81 340 q 81 348 73 354 q 42 362 33 364 q 23 365 16 368 z"},"]":{"x_min":0,"x_max":271,"ha":271,"o":"m -21 605 l -21 626 l 1 627 l 20 627 l 152 627 q 160 627 170 625 l 169 572 l 170 562 q 171 530 171 494 q 171 477 169 452 q 167 427 167 418 q 167 341 171 286 l 171 246 l 172 180 l 171 155 l 173 45 q 173 34 172 18 q 171 2 171 -5 q 171 -12 173 -61 l 173 -154 l 174 -212 q 174 -221 174 -232 l -17 -233 l -18 -212 l -9 -212 q -3 -212 8 -212 q 19 -212 26 -212 q 90 -212 105 -203 q 109 -186 109 -132 l 109 -109 l 109 -59 l 109 -22 q 109 -16 111 3 l 111 33 l 106 241 q 106 247 107 264 q 108 288 108 297 q 108 320 105 419 q 104 453 104 461 q 104 475 107 518 l 105 567 l 104 583 q 104 587 101 596 q 86 601 75 603 q 69 603 -21 605 z"},"U":{"x_min":0,"x_max":708,"ha":708,"o":"m 285 627 q 288 619 288 614 q 288 611 286 605 q 273 602 266 602 q 262 602 254 603 q 246 604 241 604 q 219 604 206 595 q 197 589 195 581 l 190 525 l 191 283 q 192 150 200 118 q 208 85 228 64 q 248 43 287 30 q 326 16 363 16 q 446 16 490 40 q 535 64 554 106 q 573 148 573 234 q 573 237 572 273 l 572 288 q 572 295 573 318 q 574 341 574 345 l 566 485 q 563 556 558 568 q 554 581 545 587 q 526 601 473 612 q 470 619 470 626 q 489 628 507 628 q 527 628 548 626 q 581 624 583 624 l 661 626 l 676 626 l 675 608 q 615 601 604 590 q 592 580 592 551 q 592 536 594 485 l 597 384 l 597 344 l 598 293 q 598 198 593 163 q 585 115 571 86 q 556 58 529 35 q 501 13 456 -2 q 410 -17 366 -17 q 296 -17 265 -7 q 209 10 176 38 q 143 65 130 92 q 113 128 113 198 l 113 231 l 111 368 l 113 479 l 113 553 q 113 581 105 592 q 100 600 89 600 l 61 600 q 28 600 20 606 q 18 611 18 614 q 18 619 21 621 q 26 625 34 625 l 47 625 l 80 625 l 157 625 z"},"o":{"x_min":0,"x_max":510,"ha":510,"o":"m 36 196 q 36 229 50 267 q 63 305 92 335 q 120 365 152 380 q 196 400 260 400 q 352 400 413 338 q 474 275 474 188 q 474 109 410 48 q 346 -13 248 -13 q 187 -13 133 19 q 93 42 64 89 q 36 136 36 196 z m 251 6 q 289 6 323 26 q 357 46 378 90 q 398 134 398 192 q 398 230 383 281 q 367 331 334 356 q 301 381 256 381 q 224 381 191 366 q 157 351 134 308 q 111 265 111 186 q 111 97 151 52 q 191 6 251 6 z"},"N":{"x_min":0,"x_max":771,"ha":771,"o":"m 13 597 l 13 621 q 88 621 124 625 q 137 626 143 626 q 147 626 156 625 q 176 608 194 586 q 198 582 203 577 l 306 463 l 320 445 q 352 409 377 383 q 403 357 477 275 l 594 146 q 611 126 638 98 l 638 106 q 635 174 635 178 l 637 207 l 636 253 l 636 274 q 636 294 633 397 q 632 412 629 451 q 625 490 625 520 q 625 574 619 583 q 615 589 578 596 q 569 596 550 599 q 528 600 524 601 q 521 603 517 609 q 518 617 521 624 q 534 628 547 628 q 561 628 581 625 q 601 621 617 621 q 640 621 687 624 q 714 626 724 626 l 732 626 l 731 611 q 724 607 710 607 q 696 606 685 603 q 667 597 664 593 q 652 581 652 567 l 657 413 l 661 342 l 661 322 l 664 224 q 667 123 667 49 q 667 33 665 -21 l 642 -23 q 625 -3 524 100 q 500 124 492 134 l 450 182 q 426 209 418 216 q 411 224 408 227 q 354 288 270 378 q 247 403 202 455 q 174 487 167 495 q 160 502 147 511 l 146 495 q 146 399 150 232 l 154 70 q 154 50 156 31 l 173 27 q 220 22 265 14 q 268 11 271 9 l 270 -9 q 262 -12 257 -12 q 252 -12 244 -11 q 196 -7 126 -7 q 78 -7 41 -9 l 34 -10 q 29 -10 21 -9 l 21 6 l 33 12 l 56 15 q 87 20 101 25 q 110 28 116 35 q 122 69 122 134 q 122 164 120 245 l 120 311 l 119 450 q 118 542 113 559 q 110 568 101 575 q 82 588 52 591 q 22 595 13 597 z"},"+":{"x_min":0,"x_max":667,"ha":667,"o":"m 71 331 l 311 331 l 311 573 l 354 573 l 354 331 l 596 331 l 596 288 l 354 288 l 354 49 l 311 49 l 311 288 l 71 288 z"},"G":{"x_min":0,"x_max":771,"ha":771,"o":"m 652 593 l 657 519 q 660 485 660 473 l 646 470 q 614 544 565 582 q 517 619 446 619 q 360 619 312 598 q 243 568 194 494 q 145 420 145 316 q 145 256 163 208 q 181 161 214 119 q 247 78 292 48 q 321 28 361 18 q 384 12 430 12 q 459 12 495 21 q 530 29 548 43 q 566 57 573 74 q 580 92 580 143 q 580 227 568 241 q 557 255 498 259 l 478 261 l 465 260 q 462 261 457 262 l 450 274 q 450 276 453 280 q 479 284 563 284 q 583 284 625 283 l 676 281 l 721 282 q 734 282 753 281 q 756 280 757 279 q 758 278 758 275 q 758 270 756 261 q 735 257 724 257 l 692 257 q 676 257 667 246 q 662 241 662 209 l 662 146 q 662 80 657 62 q 654 51 645 42 q 635 34 605 22 q 563 5 528 -1 q 464 -12 404 -12 q 307 -12 245 12 q 184 37 139 81 q 94 125 75 170 q 46 236 46 304 q 46 390 92 471 q 137 553 237 604 q 308 641 430 641 q 514 641 567 626 q 621 611 652 593 z"},"q":{"x_min":0,"x_max":490,"ha":490,"o":"m 413 413 l 431 413 l 432 395 l 431 291 l 432 140 q 432 101 431 85 l 431 72 l 431 52 l 431 21 l 432 -36 l 431 -101 l 432 -162 q 432 -170 431 -191 q 431 -197 431 -202 q 431 -213 438 -223 q 441 -225 444 -227 q 450 -230 458 -232 q 467 -234 474 -236 q 485 -240 494 -241 q 499 -246 499 -250 l 498 -255 q 486 -256 483 -256 l 345 -253 q 316 -253 283 -255 q 281 -250 281 -248 q 281 -245 283 -241 q 349 -228 353 -225 q 361 -221 364 -208 q 371 -181 371 -88 q 371 -14 370 45 q 362 42 339 31 q 272 0 224 0 q 181 0 134 23 q 87 45 61 91 q 34 137 34 188 q 34 274 95 333 q 157 392 243 392 q 282 392 332 373 q 368 359 385 359 q 391 359 395 365 q 402 373 413 413 z m 329 51 q 359 62 367 71 l 371 168 q 371 263 360 294 q 349 326 319 348 q 290 371 248 371 q 177 371 140 312 q 111 269 111 206 q 111 163 131 126 q 150 89 191 66 q 232 43 269 43 q 301 43 329 51 z"},"d":{"x_min":0,"x_max":500,"ha":500,"o":"m 356 354 l 357 369 l 356 426 l 357 534 q 357 579 347 591 q 337 603 290 616 q 287 617 279 619 l 279 624 q 279 629 280 635 q 347 642 395 658 l 419 658 q 421 625 421 584 l 419 396 l 423 184 l 421 71 q 421 37 426 32 q 436 22 469 22 q 476 22 488 21 l 488 12 q 488 9 487 5 q 472 1 456 -1 l 385 -15 q 370 -18 360 -18 l 360 29 q 352 26 334 19 q 258 -13 194 -13 q 156 -13 116 12 q 76 37 54 82 q 33 127 33 174 q 33 216 47 254 q 61 292 84 318 q 99 334 125 351 q 152 367 170 372 q 213 383 228 383 q 294 383 336 363 q 350 357 356 354 z m 357 53 q 359 85 359 188 q 359 274 351 297 q 343 319 311 340 q 278 360 238 360 q 182 360 143 316 q 104 273 104 188 q 104 113 146 69 q 188 24 251 24 q 288 24 317 34 q 347 44 357 53 z"},"1":{"x_min":0,"x_max":469,"ha":469,"o":"m 354 1 l 131 1 q 130 5 130 8 q 130 17 134 20 q 137 23 155 26 q 184 32 201 41 q 206 51 206 61 l 206 91 q 206 96 208 140 q 208 157 208 284 l 209 398 l 208 465 q 208 480 209 558 q 99 479 88 479 q 84 479 80 483 q 75 487 75 491 q 75 496 79 499 q 85 505 111 520 q 115 521 145 546 q 192 585 214 608 q 236 630 241 633 q 251 634 256 634 q 269 634 272 630 q 275 625 275 600 l 272 165 l 272 122 q 272 106 271 90 q 271 74 271 67 q 271 49 275 44 q 278 41 293 35 l 327 28 q 348 23 350 21 q 355 17 355 7 z"},"5":{"x_min":0,"x_max":469,"ha":469,"o":"m 370 563 q 315 559 282 559 q 257 559 229 561 q 214 562 211 562 q 151 562 147 559 q 145 558 145 555 q 143 547 132 380 q 154 392 174 396 q 195 401 229 401 q 252 401 262 398 q 308 383 329 371 q 357 353 375 331 q 393 308 408 265 q 418 233 418 199 q 418 162 408 130 q 397 98 382 77 q 366 55 335 32 q 305 9 263 -3 q 221 -16 207 -16 l 136 -10 q 107 -5 85 6 q 63 17 56 27 q 51 34 51 44 q 51 52 62 61 q 73 70 89 70 q 97 70 105 66 l 144 41 q 157 29 177 19 q 180 18 191 16 q 220 12 222 12 q 233 12 259 21 q 285 29 307 51 q 329 72 344 104 q 360 137 360 176 q 360 247 316 293 q 271 339 209 339 q 181 339 157 330 q 134 320 125 309 l 118 306 q 112 304 110 304 l 104 305 q 102 314 102 318 q 102 322 104 332 q 107 356 107 382 q 107 407 112 428 l 111 451 q 114 469 115 486 q 116 598 124 615 q 127 623 136 623 q 139 623 147 622 l 150 621 l 212 622 q 254 619 274 619 q 320 619 348 625 q 361 638 369 638 q 372 638 379 637 l 381 631 l 377 611 l 375 578 q 374 575 370 563 z"}}}
